<?xml version="1.0" standalone="no"?>
<!DOCTYPE svg PUBLIC "-//W3C//DTD SVG 20010904//EN"
 "http://www.w3.org/TR/2001/REC-SVG-20010904/DTD/svg10.dtd">
<svg version="1.0" xmlns="http://www.w3.org/2000/svg"
 width="360.000000pt" height="360.000000pt" viewBox="0 0 360.000000 360.000000"
 preserveAspectRatio="xMidYMid meet">

<g transform="translate(0.000000,360.000000) scale(0.100000,-0.100000)"
fill="#000000" stroke="none">
<path d="M0 1800 l0 -1800 1800 0 1800 0 0 1800 0 1800 -1800 0 -1800 0 0
-1800z m2560 1058 c33 -17 51 -35 68 -68 l22 -44 0 -946 0 -946 -22 -44 c-17
-33 -35 -51 -68 -68 l-44 -22 -716 0 -716 0 -44 22 c-33 17 -51 35 -67 68
l-23 44 0 946 0 946 23 44 c16 33 34 51 67 68 l44 22 716 0 716 0 44 -22z"/>
<path d="M1550 2563 c-8 -3 -59 -48 -112 -101 l-97 -96 -45 42 c-53 49 -85 53
-121 17 -43 -42 -34 -68 52 -156 112 -115 111 -115 280 54 121 121 133 136
133 168 0 49 -47 87 -90 72z"/>
<path d="M1750 2430 c-30 -30 -27 -83 6 -109 26 -20 38 -21 336 -21 l309 0 24
25 c14 13 25 36 25 50 0 14 -11 37 -25 50 l-24 25 -316 0 c-302 0 -316 -1
-335 -20z"/>
<path d="M1436 1890 l-102 -100 -39 40 c-30 31 -47 40 -72 40 -43 0 -73 -30
-73 -72 0 -27 13 -45 79 -110 60 -59 86 -78 107 -78 22 0 55 28 166 137 119
118 138 141 138 168 0 39 -36 75 -74 75 -21 0 -50 -22 -130 -100z"/>
<path d="M1747 1852 c-23 -25 -22 -85 1 -105 17 -15 55 -17 340 -17 309 0 323
1 342 20 11 11 20 33 20 50 0 17 -9 39 -20 50 -19 19 -33 20 -343 20 -301 0
-325 -1 -340 -18z"/>
<path d="M1438 1313 l-97 -97 -45 42 c-53 49 -85 53 -121 17 -43 -42 -34 -69
54 -158 112 -114 108 -115 277 54 124 124 134 137 134 171 0 43 -27 68 -75 68
-25 0 -47 -17 -127 -97z"/>
<path d="M1756 1279 c-33 -26 -36 -79 -6 -109 19 -19 33 -20 335 -20 l316 0
24 25 c14 13 25 36 25 50 0 14 -11 37 -25 50 l-24 25 -309 0 c-298 0 -310 -1
-336 -21z"/>
</g>
</svg>
