<?xml version="1.0" standalone="no"?>
<!DOCTYPE svg PUBLIC "-//W3C//DTD SVG 20010904//EN"
 "http://www.w3.org/TR/2001/REC-SVG-20010904/DTD/svg10.dtd">
<svg version="1.0" xmlns="http://www.w3.org/2000/svg"
 width="405.000000pt" height="268.000000pt" viewBox="0 0 405.000000 268.000000"
 preserveAspectRatio="xMidYMid meet">

<g transform="translate(0.000000,268.000000) scale(0.100000,-0.100000)"
fill="#000000" stroke="none">
<path d="M0 1340 l0 -1340 2025 0 2025 0 0 1340 0 1340 -2025 0 -2025 0 0
-1340z m2310 533 c-13 -57 -37 -73 -125 -84 -111 -14 -153 -48 -170 -142 -7
-35 -6 -37 20 -37 15 0 38 9 52 20 125 98 334 -155 291 -353 -27 -129 -147
-145 -246 -32 -42 48 -87 61 -168 49 -38 -5 -55 -15 -79 -41 -71 -81 -158
-104 -214 -57 -128 107 13 454 184 454 27 0 51 -7 68 -20 14 -11 36 -20 50
-20 22 0 26 6 31 44 14 90 78 146 169 146 77 0 127 36 127 89 0 12 4 21 9 21
5 0 5 -16 1 -37z m-296 -859 c24 -9 19 -34 -6 -34 -31 0 -45 -11 -56 -40 -11
-31 2 -86 23 -94 11 -4 15 1 15 19 0 14 -4 25 -10 25 -5 0 -10 5 -10 10 0 6
14 10 30 10 29 0 30 -1 30 -50 0 -50 0 -50 -32 -50 -38 0 -48 6 -71 40 -35 50
-16 128 37 154 37 18 31 17 50 10z m-1284 -83 c0 -58 4 -80 14 -84 23 -9 26 2
26 85 0 71 2 78 20 78 18 0 20 -7 20 -78 0 -95 -16 -125 -63 -120 -43 4 -57
35 -57 126 0 65 2 72 20 72 18 0 20 -7 20 -79z m230 64 c0 -8 -9 -15 -20 -15
-18 0 -20 -7 -20 -85 0 -69 -3 -85 -15 -85 -12 0 -15 16 -15 85 0 69 -3 85
-15 85 -8 0 -15 7 -15 15 0 11 12 15 50 15 38 0 50 -4 50 -15z m80 -27 l1 -43
20 38 c19 36 44 56 55 44 3 -3 -4 -24 -16 -47 l-22 -43 26 -47 c30 -55 31 -60
11 -60 -8 0 -28 21 -45 48 l-30 47 0 -47 c0 -36 -4 -48 -15 -48 -12 0 -15 18
-15 100 0 82 3 100 15 100 11 0 15 -12 15 -42z m225 20 c8 -35 35 -169 35
-174 0 -11 -29 -2 -34 11 -3 8 -15 15 -26 15 -11 0 -20 -7 -20 -15 0 -9 -9
-15 -21 -15 -13 0 -19 5 -16 13 3 8 13 53 23 100 15 70 22 87 36 87 10 0 20
-10 23 -22z m180 -11 c7 -22 6 -35 -6 -56 -15 -26 -15 -30 2 -62 23 -43 23
-49 1 -49 -11 0 -26 15 -37 38 l-20 37 -3 -37 c-2 -25 -8 -38 -18 -38 -11 0
-14 20 -14 101 l0 100 42 -3 c37 -3 44 -7 53 -31z m145 18 c0 -8 -9 -15 -19
-15 -34 0 -32 -17 4 -60 40 -47 43 -69 16 -94 -25 -22 -75 -18 -79 7 -3 15 1
17 22 11 41 -10 44 19 7 61 -33 38 -37 55 -21 86 13 24 70 27 70 4z m100 -25
c0 -35 3 -40 24 -40 20 0 23 4 22 37 -1 28 3 38 17 41 15 3 17 -7 17 -97 0
-83 -3 -101 -15 -101 -11 0 -15 11 -15 40 0 36 -2 40 -25 40 -22 0 -25 -4 -25
-40 0 -29 -4 -40 -15 -40 -12 0 -15 18 -15 100 0 82 3 100 15 100 11 0 15 -11
15 -40z m484 -47 c10 -47 20 -92 23 -100 3 -8 -2 -13 -15 -13 -11 0 -22 7 -26
15 -3 8 -12 15 -21 15 -9 0 -18 -7 -21 -15 -8 -19 -34 -20 -34 -1 0 14 25 132
36 169 3 9 13 17 23 17 13 0 21 -18 35 -87z m135 50 c6 -21 11 -44 11 -50 0
-7 4 -13 9 -13 6 0 13 21 17 46 7 46 29 68 44 44 4 -6 10 -45 14 -86 4 -41 9
-81 13 -89 3 -10 -2 -15 -16 -15 -16 0 -21 6 -21 28 0 50 -17 59 -25 13 -9
-54 -35 -52 -50 3 -9 30 -13 36 -18 22 -4 -10 -7 -29 -7 -42 0 -18 -5 -24 -21
-24 -17 0 -20 5 -16 23 3 12 9 57 13 100 6 65 10 77 25 77 12 0 21 -12 28 -37z
m241 23 c0 -8 -10 -16 -22 -18 -34 -5 -37 -38 -4 -38 19 0 26 -5 26 -20 0 -15
-7 -20 -25 -20 -20 0 -25 -5 -25 -25 0 -20 5 -25 25 -25 18 0 25 -5 25 -20 0
-17 -7 -20 -39 -20 -26 0 -41 5 -45 16 -8 20 -8 113 0 153 6 28 10 31 45 31
27 0 39 -4 39 -14z m101 -48 l15 -63 15 60 c10 41 20 61 32 63 22 4 21 -6 -7
-108 -18 -67 -27 -85 -41 -85 -15 0 -23 18 -42 90 -27 109 -27 105 -5 105 14
0 22 -14 33 -62z m219 47 c0 -9 -9 -15 -25 -15 -33 0 -35 -37 -2 -42 12 -2 22
-10 22 -18 0 -8 -10 -16 -22 -18 -17 -2 -23 -10 -23 -27 0 -17 6 -25 23 -27
41 -6 26 -33 -20 -36 l-43 -3 0 100 0 101 45 0 c33 0 45 -4 45 -15z m137 -11
c16 -24 16 -28 -1 -59 -17 -31 -17 -34 3 -74 21 -41 21 -41 1 -41 -12 0 -27
13 -39 38 l-20 37 -1 -38 c0 -31 -3 -38 -17 -35 -15 3 -18 17 -21 87 -2 47 -1
90 2 98 3 7 20 13 40 13 27 0 40 -6 53 -26z m153 11 c0 -9 -9 -15 -25 -15 -33
0 -32 -15 5 -57 50 -56 37 -113 -25 -113 -37 0 -46 6 -38 26 3 9 13 12 29 8
39 -10 42 22 5 60 -49 51 -39 106 21 106 18 0 28 -5 28 -15z m150 0 c0 -9 -9
-15 -25 -15 -33 0 -35 -37 -2 -42 12 -2 22 -10 22 -18 0 -8 -10 -16 -22 -18
-17 -3 -23 -10 -23 -28 0 -19 5 -24 26 -24 19 0 25 -5 22 -17 -2 -13 -15 -19
-46 -21 l-42 -3 0 100 0 101 45 0 c33 0 45 -4 45 -15z"/>
<path d="M1781 1612 c-85 -58 -146 -177 -145 -287 1 -90 40 -145 105 -145 33
0 92 35 130 78 40 45 92 59 179 49 41 -5 55 -13 102 -61 83 -82 152 -87 199
-14 17 28 20 45 16 108 -4 90 -35 166 -93 230 -65 72 -127 87 -184 45 -26 -19
-46 -25 -85 -25 -39 0 -59 6 -85 25 -45 33 -87 32 -139 -3z m69 -117 c0 -20 5
-25 25 -25 21 0 25 -5 25 -29 0 -23 -5 -30 -22 -33 -15 -2 -24 -11 -26 -25 -3
-18 -10 -23 -32 -23 -22 0 -29 5 -32 23 -2 14 -11 23 -25 25 -18 3 -23 10 -23
33 0 24 4 29 25 29 18 0 25 5 25 18 0 25 9 32 37 32 18 0 23 -5 23 -25z m374
3 c8 -14 7 -21 -6 -34 -22 -22 -58 -10 -58 21 0 37 43 46 64 13z m-63 -54 c17
-21 0 -49 -32 -49 -18 0 -25 6 -27 24 -6 38 34 55 59 25z m122 -5 c15 -24 1
-49 -27 -49 -29 0 -44 33 -25 56 15 18 38 15 52 -7z m-69 -52 c28 -21 12 -59
-22 -55 -30 3 -41 30 -22 53 15 18 21 19 44 2z"/>
<path d="M1798 1478 c-2 -15 -11 -24 -25 -26 -32 -5 -30 -32 2 -32 20 0 25 -5
25 -25 0 -18 5 -25 20 -25 15 0 20 7 20 25 0 20 5 25 25 25 16 0 25 6 25 15 0
9 -9 15 -25 15 -20 0 -25 5 -25 25 0 33 -37 35 -42 3z"/>
<path d="M2181 1497 c-9 -11 -8 -17 4 -27 12 -10 16 -9 21 5 9 23 -10 40 -25
22z"/>
<path d="M2114 1429 c-3 -6 -2 -15 4 -21 13 -13 32 -2 32 18 0 16 -26 19 -36
3z"/>
<path d="M2243 1439 c-14 -14 -6 -39 12 -39 18 0 26 27 11 39 -9 7 -16 7 -23
0z"/>
<path d="M2175 1370 c-8 -14 3 -30 21 -30 8 0 14 9 14 20 0 21 -24 28 -35 10z"/>
<path d="M1236 902 c-4 -13 -5 -26 -2 -29 10 -11 18 4 14 29 l-4 23 -8 -23z"/>
<path d="M1387 974 c-4 -4 -7 -18 -7 -31 0 -27 25 -31 34 -6 7 18 -16 48 -27
37z"/>
<path d="M2130 894 c0 -14 4 -23 9 -20 5 3 7 15 4 26 -7 28 -13 25 -13 -6z"/>
<path d="M2950 950 c0 -21 4 -30 13 -27 6 2 12 14 12 27 0 13 -6 25 -12 28 -9
2 -13 -7 -13 -28z"/>
</g>
</svg>
